<svg width="14" height="12" viewBox="0 0 14 12" fill="none" xmlns="http://www.w3.org/2000/svg">
<path d="M10.124 0.5C11.019 0.501009 11.8769 0.857412 12.5098 1.49023C13.103 2.08346 13.4538 2.87409 13.4961 3.70801L13.5 3.87598C13.4995 5.82915 12.034 7.67875 10.3926 9.11621C9.18103 10.1772 7.94815 10.9492 7.35645 11.2959L7.00293 11.4951L7 11.4971L6.99707 11.4961L6.64355 11.2959C6.05185 10.9492 4.81898 10.1772 3.60742 9.11621C1.96603 7.67875 0.500488 5.82915 0.5 3.87598C0.501009 2.98103 0.857412 2.12306 1.49023 1.49023C2.12292 0.857545 2.98026 0.501157 3.875 0.5C5.01949 0.5 5.99716 0.989311 6.60059 1.79297L7 2.32617L7.39941 1.79297C8.00267 0.98954 8.97995 0.500278 10.124 0.5Z" fill="#F0E8C2" stroke="black"/>
</svg>
